<svg width="12" height="14" viewBox="0 0 12 14" fill="none" xmlns="http://www.w3.org/2000/svg">
<path fill-rule="evenodd" clip-rule="evenodd" d="M5.64171 0.70621C5.85235 0.542373 6.14732 0.542373 6.35797 0.70621L11.608 4.78954C11.7501 4.90006 11.8332 5.06999 11.8332 5.25V11.6667C11.8332 12.1308 11.6488 12.5759 11.3206 12.9041C10.9924 13.2323 10.5473 13.4167 10.0832 13.4167H1.9165C1.45237 13.4167 1.00726 13.2323 0.679067 12.9041C0.350878 12.5759 0.166504 12.1308 0.166504 11.6667V5.25C0.166504 5.06999 0.249613 4.90006 0.391705 4.78954L5.64171 0.70621ZM1.33317 5.5353V11.6667C1.33317 11.8214 1.39463 11.9697 1.50403 12.0791C1.61342 12.1885 1.76179 12.25 1.9165 12.25H10.0832C10.2379 12.25 10.3863 12.1885 10.4956 12.0791C10.605 11.9697 10.6665 11.8214 10.6665 11.6667V5.5353L5.99984 1.90567L1.33317 5.5353Z" fill="white"/>
<path fill-rule="evenodd" clip-rule="evenodd" d="M3.6665 7C3.6665 6.67783 3.92767 6.41667 4.24984 6.41667H7.74984C8.072 6.41667 8.33317 6.67783 8.33317 7V12.8333C8.33317 13.1555 8.072 13.4167 7.74984 13.4167C7.42767 13.4167 7.1665 13.1555 7.1665 12.8333V7.58333H4.83317V12.8333C4.83317 13.1555 4.572 13.4167 4.24984 13.4167C3.92767 13.4167 3.6665 13.1555 3.6665 12.8333V7Z" fill="white"/>
</svg>
